<mxfile host="app.diagrams.net" modified="2024-06-12T14:56:27.014Z" agent="Mozilla/5.0 (Macintosh; Intel Mac OS X 10_15_7) AppleWebKit/537.36 (KHTML, like Gecko) Chrome/112.0.0.0 Safari/537.36 uacq" etag="MrXiVaoqGmucgrCouII4" version="24.5.3" type="device">
  <diagram id="ngHgzNohu4jBSClF6x_Q" name="Page-1">
    <mxGraphModel dx="394" dy="580" grid="1" gridSize="10" guides="1" tooltips="1" connect="1" arrows="1" fold="1" page="0" pageScale="1" pageWidth="850" pageHeight="1100" math="0" shadow="0">
      <root>
        <mxCell id="0" />
        <mxCell id="1" parent="0" />
        <mxCell id="20" value="" style="edgeStyle=none;html=1;fontSize=20;" parent="1" source="18" target="19" edge="1">
          <mxGeometry relative="1" as="geometry" />
        </mxCell>
        <mxCell id="18" value="START" style="ellipse;whiteSpace=wrap;html=1;fontSize=20;fillColor=#1ba1e2;fontColor=#ffffff;strokeColor=#006EAF;" parent="1" vertex="1">
          <mxGeometry x="675" y="320" width="120" height="50" as="geometry" />
        </mxCell>
        <mxCell id="24" value="" style="edgeStyle=none;html=1;fontSize=20;" parent="1" source="19" target="23" edge="1">
          <mxGeometry relative="1" as="geometry" />
        </mxCell>
        <mxCell id="19" value="ubind(type)" style="whiteSpace=wrap;html=1;fontSize=20;fillColor=#1ba1e2;strokeColor=#006EAF;fontColor=#ffffff;" parent="1" vertex="1">
          <mxGeometry x="675" y="410" width="120" height="60" as="geometry" />
        </mxCell>
        <mxCell id="26" value="" style="edgeStyle=orthogonalEdgeStyle;html=1;fontSize=20;entryX=0.5;entryY=0;entryDx=0;entryDy=0;" parent="1" source="23" target="32" edge="1">
          <mxGeometry relative="1" as="geometry">
            <mxPoint x="735" y="670" as="targetPoint" />
          </mxGeometry>
        </mxCell>
        <mxCell id="75" value="N" style="edgeLabel;html=1;align=center;verticalAlign=middle;resizable=0;points=[];fontSize=20;" parent="26" vertex="1" connectable="0">
          <mxGeometry x="-0.7889" y="4" relative="1" as="geometry">
            <mxPoint as="offset" />
          </mxGeometry>
        </mxCell>
        <mxCell id="29" value="" style="html=1;fontSize=20;edgeStyle=orthogonalEdgeStyle;entryX=1;entryY=0.5;entryDx=0;entryDy=0;" parent="1" source="23" target="57" edge="1">
          <mxGeometry relative="1" as="geometry">
            <Array as="points">
              <mxPoint x="1280" y="540" />
              <mxPoint x="1280" y="1160" />
            </Array>
            <mxPoint x="670" y="1120" as="targetPoint" />
          </mxGeometry>
        </mxCell>
        <mxCell id="77" value="Y" style="edgeLabel;html=1;align=center;verticalAlign=middle;resizable=0;points=[];fontSize=20;" parent="29" vertex="1" connectable="0">
          <mxGeometry x="-0.9604" y="-2" relative="1" as="geometry">
            <mxPoint as="offset" />
          </mxGeometry>
        </mxCell>
        <mxCell id="23" value="@unit === null?" style="rhombus;whiteSpace=wrap;html=1;fontSize=20;fillColor=#1ba1e2;strokeColor=#006EAF;fontColor=#ffffff;" parent="1" vertex="1">
          <mxGeometry x="655" y="500" width="160" height="80" as="geometry" />
        </mxCell>
        <mxCell id="28" value="END" style="ellipse;whiteSpace=wrap;html=1;fontSize=20;fillColor=#1ba1e2;fontColor=#ffffff;strokeColor=#006EAF;" parent="1" vertex="1">
          <mxGeometry x="470" y="1270" width="120" height="55.45" as="geometry" />
        </mxCell>
        <mxCell id="35" value="Y" style="edgeStyle=orthogonalEdgeStyle;html=1;fontSize=20;entryX=0.5;entryY=0;entryDx=0;entryDy=0;" parent="1" source="32" target="37" edge="1">
          <mxGeometry relative="1" as="geometry">
            <mxPoint x="1030" y="640" as="targetPoint" />
          </mxGeometry>
        </mxCell>
        <mxCell id="47" value="" style="edgeStyle=orthogonalEdgeStyle;html=1;fontSize=20;entryX=0;entryY=0.5;entryDx=0;entryDy=0;" parent="1" source="32" target="49" edge="1">
          <mxGeometry relative="1" as="geometry">
            <mxPoint x="920" y="640" as="targetPoint" />
          </mxGeometry>
        </mxCell>
        <mxCell id="48" value="N" style="edgeLabel;html=1;align=center;verticalAlign=middle;resizable=0;points=[];fontSize=20;" parent="47" vertex="1" connectable="0">
          <mxGeometry x="-0.18" y="3" relative="1" as="geometry">
            <mxPoint as="offset" />
          </mxGeometry>
        </mxCell>
        <mxCell id="32" value="@unit.flag !== 0?" style="rhombus;whiteSpace=wrap;html=1;fontSize=20;fillColor=#1ba1e2;strokeColor=#006EAF;fontColor=#ffffff;" parent="1" vertex="1">
          <mxGeometry x="450" y="590" width="160" height="80" as="geometry" />
        </mxCell>
        <mxCell id="41" value="" style="edgeStyle=orthogonalEdgeStyle;html=1;fontSize=20;" parent="1" source="37" target="40" edge="1">
          <mxGeometry relative="1" as="geometry" />
        </mxCell>
        <mxCell id="43" value="Y" style="edgeLabel;html=1;align=center;verticalAlign=middle;resizable=0;points=[];fontSize=20;" parent="41" vertex="1" connectable="0">
          <mxGeometry x="-0.1333" y="1" relative="1" as="geometry">
            <mxPoint as="offset" />
          </mxGeometry>
        </mxCell>
        <mxCell id="45" value="N" style="edgeStyle=orthogonalEdgeStyle;html=1;fontSize=20;" parent="1" source="37" target="44" edge="1">
          <mxGeometry relative="1" as="geometry" />
        </mxCell>
        <mxCell id="37" value="@unit.health &amp;gt; 0?" style="rhombus;whiteSpace=wrap;html=1;fontSize=20;fillColor=#1ba1e2;strokeColor=#006EAF;fontColor=#ffffff;" parent="1" vertex="1">
          <mxGeometry x="450" y="720" width="160" height="80" as="geometry" />
        </mxCell>
        <mxCell id="58" style="edgeStyle=orthogonalEdgeStyle;html=1;entryX=0.5;entryY=0;entryDx=0;entryDy=0;fontSize=20;" parent="1" source="40" target="57" edge="1">
          <mxGeometry relative="1" as="geometry" />
        </mxCell>
        <mxCell id="40" value="MEM[@unit.flag] = 50" style="whiteSpace=wrap;html=1;fontSize=20;fillColor=#1ba1e2;strokeColor=#006EAF;fontColor=#ffffff;" parent="1" vertex="1">
          <mxGeometry x="430" y="984.55" width="200" height="60" as="geometry" />
        </mxCell>
        <mxCell id="69" value="" style="edgeStyle=orthogonalEdgeStyle;html=1;fontSize=20;entryX=1;entryY=0.5;entryDx=0;entryDy=0;exitX=0.5;exitY=1;exitDx=0;exitDy=0;" parent="1" source="44" target="57" edge="1">
          <mxGeometry relative="1" as="geometry">
            <mxPoint x="810" y="1124.55" as="targetPoint" />
          </mxGeometry>
        </mxCell>
        <mxCell id="44" value="MEM[@unit.flag] = 0" style="whiteSpace=wrap;html=1;fontSize=20;fillColor=#1ba1e2;strokeColor=#006EAF;fontColor=#ffffff;" parent="1" vertex="1">
          <mxGeometry x="710" y="854.55" width="200" height="60" as="geometry" />
        </mxCell>
        <mxCell id="53" value="" style="edgeStyle=orthogonalEdgeStyle;html=1;fontSize=20;" parent="1" source="49" target="52" edge="1">
          <mxGeometry relative="1" as="geometry" />
        </mxCell>
        <mxCell id="54" value="Y" style="edgeLabel;html=1;align=center;verticalAlign=middle;resizable=0;points=[];fontSize=20;" parent="53" vertex="1" connectable="0">
          <mxGeometry x="-0.14" y="2" relative="1" as="geometry">
            <mxPoint as="offset" />
          </mxGeometry>
        </mxCell>
        <mxCell id="63" style="edgeStyle=orthogonalEdgeStyle;html=1;exitX=1;exitY=0.5;exitDx=0;exitDy=0;fontSize=20;" parent="1" source="49" edge="1">
          <mxGeometry relative="1" as="geometry">
            <mxPoint x="1280" y="630" as="targetPoint" />
          </mxGeometry>
        </mxCell>
        <mxCell id="65" value="N" style="edgeLabel;html=1;align=center;verticalAlign=middle;resizable=0;points=[];fontSize=20;" parent="63" vertex="1" connectable="0">
          <mxGeometry x="-0.2762" y="7" relative="1" as="geometry">
            <mxPoint as="offset" />
          </mxGeometry>
        </mxCell>
        <mxCell id="49" value="@unit.health &amp;gt; 0?" style="rhombus;whiteSpace=wrap;html=1;fontSize=20;fillColor=#1ba1e2;strokeColor=#006EAF;fontColor=#ffffff;" parent="1" vertex="1">
          <mxGeometry x="1000" y="590" width="160" height="80" as="geometry" />
        </mxCell>
        <mxCell id="56" value="" style="edgeStyle=orthogonalEdgeStyle;html=1;fontSize=20;" parent="1" source="52" target="55" edge="1">
          <mxGeometry relative="1" as="geometry" />
        </mxCell>
        <mxCell id="52" value="id = lookupId()" style="whiteSpace=wrap;html=1;fontSize=20;fillColor=#1ba1e2;strokeColor=#006EAF;fontColor=#ffffff;" parent="1" vertex="1">
          <mxGeometry x="970" y="854.55" width="220" height="60" as="geometry" />
        </mxCell>
        <mxCell id="71" value="" style="edgeStyle=orthogonalEdgeStyle;html=1;fontSize=20;" parent="1" source="55" edge="1">
          <mxGeometry relative="1" as="geometry">
            <mxPoint x="1080" y="1160" as="targetPoint" />
          </mxGeometry>
        </mxCell>
        <mxCell id="55" value="MEM[id] = 50" style="whiteSpace=wrap;html=1;fontSize=20;fillColor=#1ba1e2;strokeColor=#006EAF;fontColor=#ffffff;" parent="1" vertex="1">
          <mxGeometry x="970" y="984.55" width="220" height="60" as="geometry" />
        </mxCell>
        <mxCell id="MzNi6fJVHSu-eDFgZJB--77" value="" style="edgeStyle=orthogonalEdgeStyle;rounded=0;orthogonalLoop=1;jettySize=auto;html=1;" edge="1" parent="1" source="57" target="28">
          <mxGeometry relative="1" as="geometry" />
        </mxCell>
        <mxCell id="57" value="MEM[1-24] -= 1" style="whiteSpace=wrap;html=1;fontSize=20;fillColor=#1ba1e2;strokeColor=#006EAF;fontColor=#ffffff;" parent="1" vertex="1">
          <mxGeometry x="430" y="1130" width="200" height="60" as="geometry" />
        </mxCell>
      </root>
    </mxGraphModel>
  </diagram>
</mxfile>
